<svg xmlns="http://www.w3.org/2000/svg" viewBox="0 0 313.51 48.33"><defs><style>.cls-1{fill:#1a1a1a;}.cls-2{fill:#ed1b23;}</style></defs><g id="레이어_2" data-name="레이어 2"><g id="Layer_1" data-name="Layer 1"><path class="cls-1" d="M16,0h-5.5Q0,0,0,9.72v7.41a9.78,9.78,0,0,0,.55,3.59A4.9,4.9,0,0,0,2.34,23a26.73,26.73,0,0,0,4,2.13l8.34,4a20.2,20.2,0,0,1,2.39,1.43,2.56,2.56,0,0,1,.73,2.13v5.43q0,3.32-3.48,3.32H12.74c-2.42,0-3.67-1-3.86-2.87H8.8a3.84,3.84,0,0,0-4.1-3.53H0v2.84Q0,48.33,10.54,48.33H16q10.62,0,10.63-9.57V30.88a8.91,8.91,0,0,0-.64-4.07A5.85,5.85,0,0,0,24.15,25a41.16,41.16,0,0,0-3.9-2.09L11.91,19A18.62,18.62,0,0,1,9.53,17.6a2.53,2.53,0,0,1-.73-2.13V10.28q0-3.4,3.76-3.4h1.37q3.86,0,3.85,3.4v2a3.94,3.94,0,0,0,4,3h4.76V9.72Q26.58,0,16,0Z"/><path class="cls-1" d="M52.42,0H44Q33.45,0,33.45,9.72v29q0,9.65,10.63,9.65h8.25Q63,48.33,63,38.68v-29Q63,0,52.42,0Zm1.74,38.13q0,3.32-3.48,3.32H46.19q-3.94,0-3.94-3.32V10.2q0-3.31,3.85-3.32h4.12q3.95,0,3.94,3.32Z"/><path class="cls-1" d="M124.18,3.57V0H102.56a3.93,3.93,0,0,0-4,3V6.88H107V48.33h4.72A3.88,3.88,0,0,0,115.74,45V6.88h4.36A3.88,3.88,0,0,0,124.18,3.57Z"/><path class="cls-2" d="M184.4,3.54h0V37.73q0,3.72-3.58,3.72h-3.57q-3.86,0-3.85-3.72V0h-4.74a3.91,3.91,0,0,0-4.06,3.17V37.5q0,10.83,10.54,10.83h7.42q10.63,0,10.64-10.75V0H188.5A3.84,3.84,0,0,0,184.4,3.54Z"/><path class="cls-2" d="M225.16,45.06V41.45H210.59L225.16,0h-25V3.42h0a3.71,3.71,0,0,0,3.24,3.46h11.22L200.15,48.33H221.1A3.88,3.88,0,0,0,225.16,45.06Z"/><path class="cls-2" d="M284.82,45.41v-4H272.73V0H268a3.88,3.88,0,0,0-4.07,3.27V48.33h16.86A4,4,0,0,0,284.82,45.41Z"/><path class="cls-2" d="M257.06,45.06V41.45H242.48L257.06,0H232V3.42h0a3.71,3.71,0,0,0,3.24,3.46h11.22L232,48.33h21A3.89,3.89,0,0,0,257.06,45.06Z"/><path class="cls-2" d="M310.19,39a6,6,0,1,1,0-6.66,4,4,0,0,0,2.19.71,5,5,0,0,0,1.12-.14V15.6a5,5,0,0,0-1.12-.15,4.17,4.17,0,0,0-2.2.71,6,6,0,1,1,0-6.66,4,4,0,0,0,2.19.71,5,5,0,0,0,1.12-.15V0H295.79a3.85,3.85,0,0,0-4.09,3.48V48.33h17.75a3.92,3.92,0,0,0,4.06-3.15V38.42a5,5,0,0,0-1.12-.15A4.17,4.17,0,0,0,310.19,39Z"/><path class="cls-1" d="M78.63,6.88h9.24a4,4,0,0,0,3.77-2.76V0H73.87a4,4,0,0,0-4,3V48.33h4.76a3.94,3.94,0,0,0,4-3Z"/><path class="cls-1" d="M88,26.77A3.91,3.91,0,0,0,91.64,24V19.9H81.14v6.87Z"/><path class="cls-2" d="M139.85,6.88H145q3.95,0,3.94,3.32v6.37q0,3.33-3.48,3.33h-3.08v6.86h4.82q10.53,0,10.54-9.64V9.72Q157.72,0,147.09,0h-12a3.9,3.9,0,0,0-4.06,3.21V48.33h4.78a4,4,0,0,0,4-2.81Z"/></g></g></svg>