<svg xmlns="http://www.w3.org/2000/svg" viewBox="0 0 418.87 106.62"><defs><style>.cls-1{fill:#808284;}.cls-2{fill:#ed1b23;}.cls-3{fill:#943c97;}.cls-4{fill:#adafb2;}.cls-5{fill:#1a1a1a;}.cls-6{fill:#50b848;}.cls-7{fill:#ffcb02;}.cls-8{fill:#00c0f3;}.cls-9{fill:#ccc;}</style></defs><g id="레이어_2" data-name="레이어 2"><g id="Layer_1" data-name="Layer 1"><path class="cls-1" d="M338.33,41.83c-.1,0-.15,0-.15-.16V31.13a.17.17,0,0,1,0-.12.16.16,0,0,1,.12,0h1.12a.14.14,0,0,1,.16.16V41.67a.15.15,0,0,1,0,.11.15.15,0,0,1-.12,0Z"/><path class="cls-1" d="M352.65,38.61a.19.19,0,0,1-.13.06h-5V43a.17.17,0,0,1-.19.19h-1.17c-.12,0-.18-.06-.18-.19V38.67h-5.07a.18.18,0,0,1-.14-.06.27.27,0,0,1-.05-.14V37.6a.24.24,0,0,1,.05-.14.18.18,0,0,1,.14-.06h11.65a.21.21,0,0,1,.13.07.17.17,0,0,1,.07.13v.87A.19.19,0,0,1,352.65,38.61Zm-10.24-2.39a.32.32,0,0,1-.22,0,.27.27,0,0,1-.12-.14l-.31-.8a.23.23,0,0,1,0-.17.37.37,0,0,1,.14-.12c.62-.15,1.23-.33,1.83-.52s1.16-.39,1.67-.61a14.13,14.13,0,0,0,1.4-.68,6.68,6.68,0,0,0,1-.72.55.55,0,0,0,.16-.19s-.07-.08-.22-.08h-4.89c-.12,0-.18-.06-.18-.17v-.91c0-.11.06-.16.18-.16h6.28a1.7,1.7,0,0,1,.84.17.48.48,0,0,1,.31.43,1,1,0,0,1-.12.45c-.09.15-.16.28-.23.38a6.72,6.72,0,0,1-1.69,1.48l.77.28.83.27c.28.09.55.17.83.24s.54.13.78.18a.25.25,0,0,1,.15.1.19.19,0,0,1,0,.18l-.32.8a.24.24,0,0,1-.29.17,8.45,8.45,0,0,1-.91-.22l-1-.34-1.1-.42L347,34.62a19.48,19.48,0,0,1-2.24.93A22.88,22.88,0,0,1,342.41,36.22Z"/><path class="cls-1" d="M354.14,41.83c-.1,0-.15,0-.15-.16V31.13A.15.15,0,0,1,354,31a.15.15,0,0,1,.11,0h1.12a.16.16,0,0,1,.12,0,.17.17,0,0,1,0,.12V41.67a.15.15,0,0,1,0,.11.13.13,0,0,1-.12,0Z"/><path class="cls-1" d="M368.46,41a.18.18,0,0,1-.13.06H356.68a.17.17,0,0,1-.13-.05.2.2,0,0,1-.06-.15V40a.2.2,0,0,1,.06-.14.15.15,0,0,1,.13-.06h5V37a.17.17,0,0,1,.19-.19h1.16a.24.24,0,0,1,.14.05.18.18,0,0,1,.06.14v2.86h5.07a.16.16,0,0,1,.13.07.17.17,0,0,1,.07.13v.88A.19.19,0,0,1,368.46,41Zm-10.4-3.6a.21.21,0,0,1-.14,0,.32.32,0,0,1-.16-.13l-.48-.83a.21.21,0,0,1,0-.2.26.26,0,0,1,.14-.11,11.64,11.64,0,0,0,1.76-.81,5.44,5.44,0,0,0,1.28-1,4.39,4.39,0,0,0,.83-1.29,5.46,5.46,0,0,0,.4-1.67.7.7,0,0,1,.06-.19.15.15,0,0,1,.16-.08l1.16.05c.15,0,.22.11.22.3a3.5,3.5,0,0,1-.09.66,4.23,4.23,0,0,0,.56,1.23,5.25,5.25,0,0,0,1,1.07,7.29,7.29,0,0,0,1.29.87,7.75,7.75,0,0,0,1.47.58.2.2,0,0,1,.1.27l-.45.86a.26.26,0,0,1-.32.14,6.1,6.1,0,0,1-1.23-.45,8.89,8.89,0,0,1-1.2-.69,7,7,0,0,1-1.06-.89,5.51,5.51,0,0,1-.82-1,6.2,6.2,0,0,1-1.81,2A9.54,9.54,0,0,1,358.06,37.43Z"/><path class="cls-1" d="M381,40.93a.19.19,0,0,1-.13.07H369.25a.15.15,0,0,1-.13-.07.18.18,0,0,1-.05-.13v-.88a.17.17,0,0,1,.05-.14.16.16,0,0,1,.13-.06h11.66a.22.22,0,0,1,.13.06.23.23,0,0,1,.07.14v.88A.21.21,0,0,1,381,40.93Zm-10.18-8.17a.23.23,0,0,1-.15-.07.19.19,0,0,1-.08-.14v-.82a.19.19,0,0,1,.08-.13.23.23,0,0,1,.15-.07h8.44a.21.21,0,0,1,.2.2v.83a.21.21,0,0,1-.2.2H378v3.61h1.59a.2.2,0,0,1,.15.06.24.24,0,0,1,.05.14v.83a.22.22,0,0,1-.05.14.2.2,0,0,1-.15.06h-8.94a.24.24,0,0,1-.15-.06.21.21,0,0,1-.07-.15v-.82a.17.17,0,0,1,.07-.13.26.26,0,0,1,.15-.07h1.59V32.76Zm2.83,0v3.61h2.77V32.76Z"/><path class="cls-1" d="M393.61,39.81a.19.19,0,0,1,.07.15v.84a.17.17,0,0,1-.07.13.16.16,0,0,1-.13.07H381.83a.14.14,0,0,1-.13-.07.19.19,0,0,1-.06-.13V40c0-.15.06-.22.19-.22h11.65A.19.19,0,0,1,393.61,39.81Zm-1.67-2.09a.17.17,0,0,1-.12,0h-7.46a1,1,0,0,1-.75-.24,1.06,1.06,0,0,1-.21-.71V32.18a.84.84,0,0,1,.22-.68,1.13,1.13,0,0,1,.74-.19h7.34c.13,0,.19.06.19.18v.89a.17.17,0,0,1-.19.19h-6.53a.21.21,0,0,0-.24.23v1.11h6.6a.18.18,0,0,1,.12.05.15.15,0,0,1,.07.12V35a.16.16,0,0,1-.07.14.15.15,0,0,1-.12,0h-6.6v1.14a.27.27,0,0,0,.05.19.29.29,0,0,0,.19.05h6.6a.35.35,0,0,1,.16,0s.05.06.05.13v.88A.22.22,0,0,1,391.94,37.72Z"/><path class="cls-1" d="M394.65,38.32l.64,0h.63V32.85h-1.07a.24.24,0,0,1-.15-.06.22.22,0,0,1-.08-.15v-.83a.22.22,0,0,1,.08-.15.24.24,0,0,1,.15-.06h6.76a.22.22,0,0,1,.21.21v.84a.15.15,0,0,1-.07.14.18.18,0,0,1-.14.06h-1.08v5.3c.54,0,1.06-.1,1.55-.16a.26.26,0,0,1,.15,0,.15.15,0,0,1,.09.1l.12.84a.16.16,0,0,1,0,.17.31.31,0,0,1-.13.06c-.53.08-1.1.15-1.72.21s-1.24.1-1.89.13-1.33.06-2,.06-1.35,0-2,0a.18.18,0,0,1-.14-.06.24.24,0,0,1-.05-.14v-.86A.17.17,0,0,1,394.65,38.32Zm3.59,0,.81,0V32.85h-1.64v5.47Zm5.3-7.56c0-.11.06-.17.18-.17h1.18c.12,0,.18.06.18.17V43.09c0,.11-.06.17-.18.17h-1.18c-.12,0-.18-.06-.18-.17v-7h-1.82a.21.21,0,0,1-.13-.05.18.18,0,0,1-.07-.15v-.88a.18.18,0,0,1,.07-.15.31.31,0,0,1,.13,0h1.82Z"/><path class="cls-1" d="M418.77,36.91a.22.22,0,0,1-.14.06H407c-.13,0-.19-.06-.19-.18v-.87a.18.18,0,0,1,.06-.14.16.16,0,0,1,.13-.06h11.65a.21.21,0,0,1,.2.2v.87A.17.17,0,0,1,418.77,36.91ZM408.44,35c-.17,0-.28,0-.32-.14l-.22-.74a.22.22,0,0,1,0-.17.21.21,0,0,1,.12-.1c.57-.11,1.12-.23,1.68-.36s1.09-.28,1.58-.43.94-.3,1.35-.46a9.58,9.58,0,0,0,1-.43.84.84,0,0,0,.23-.17s0-.06-.22-.06H409c-.12,0-.18-.06-.18-.19v-.86c0-.1.06-.16.18-.16h6.26a2,2,0,0,1,.85.16.49.49,0,0,1,.34.47.79.79,0,0,1-.18.51,3,3,0,0,1-.32.35,5,5,0,0,1-.59.45c-.22.14-.47.29-.74.43l.74.17.83.16.82.13.75.12a.19.19,0,0,1,.15.08.15.15,0,0,1,0,.18l-.26.7a.24.24,0,0,1-.09.14.21.21,0,0,1-.19,0c-.32,0-.67-.1-1-.17l-1.16-.23c-.39-.09-.78-.18-1.17-.29l-1.11-.3c-.64.24-1.33.45-2.08.65S409.27,34.83,408.44,35Zm8.8,8.18a.17.17,0,0,1-.12.06h-7.53a1,1,0,0,1-.71-.19.8.8,0,0,1-.19-.61V40.79a.87.87,0,0,1,.18-.62,1,1,0,0,1,.71-.2h5.74l.14,0a.22.22,0,0,0,0-.14V39.3c0-.07,0-.12,0-.13a.22.22,0,0,0-.14,0h-6.47a.19.19,0,0,1-.12,0,.16.16,0,0,1-.06-.12v-.9a.21.21,0,0,1,.18-.18h7.23a1.09,1.09,0,0,1,.72.17.83.83,0,0,1,.19.63v1.62a.8.8,0,0,1-.19.63,1.16,1.16,0,0,1-.72.16h-5.71c-.08,0-.12,0-.14,0s0,.07,0,.14v.54c0,.08,0,.12,0,.14a.4.4,0,0,0,.15,0h6.73a.18.18,0,0,1,.13.05.14.14,0,0,1,.07.13V43A.16.16,0,0,1,417.24,43.16Z"/><path class="cls-2" d="M53.82,7.42a4,4,0,0,0-2.13-3.08A2.62,2.62,0,0,1,51,2.94c-.07-.63,0-1.54.55-1.6L62.87,0l1.39,11.72c.07.56,1,.63,1.6.55a2.67,2.67,0,0,0,1.41-.65,4,4,0,1,1,4,5.8,4,4,0,0,1-3.5-1.36,2.65,2.65,0,0,0-1.51-.29c-.62.07-1.49.36-1.43.91l1.29,10.84L54.85,28.86c-.55.07-.62,1-.55,1.6A2.57,2.57,0,0,0,55,31.87a4,4,0,1,1-4.45.52,2.64,2.64,0,0,0,.31-1.51c-.08-.62-.36-1.5-.91-1.43L38.61,30.79,37.32,19.94c-.06-.55.8-.84,1.43-.9a2.68,2.68,0,0,1,1.52.29,4,4,0,0,0,7-3.08,4,4,0,0,0-7.51-1.36,2.71,2.71,0,0,1-1.41.65c-.63.08-1.54,0-1.6-.55L35.34,3.27,46.63,1.93c.55-.06.84.8.91,1.43a2.67,2.67,0,0,1-.3,1.51,4,4,0,1,0,6.58,2.55Z"/><path class="cls-3" d="M82.18,14.28a2.56,2.56,0,0,0-2.34.6,1.73,1.73,0,0,1-1,.08c-.4-.09-.93-.34-.85-.69L79.7,7.11,87.13,8.9c.35.09.6-.45.7-.85a1.78,1.78,0,0,0-.08-1,2.56,2.56,0,0,1-.61-2.34,2.59,2.59,0,1,1,3.43,3,1.77,1.77,0,0,0-.53.86c-.09.39-.12,1,.23,1.07l6.88,1.65-1.72,7.16c-.09.35.45.59.85.69a1.78,1.78,0,0,0,1-.08,2.58,2.58,0,1,1-.68,2.81,1.85,1.85,0,0,0-.85-.52c-.4-.09-1-.12-1.07.23L93,28.76,86.08,27.1c-.35-.08-.33-.67-.23-1.07a1.66,1.66,0,0,1,.52-.85,2.58,2.58,0,1,0-2.82-.68,1.61,1.61,0,0,1,.08,1c-.09.4-.34.93-.69.85l-7.43-1.79,1.72-7.15c.09-.35.68-.33,1.07-.23a1.66,1.66,0,0,1,.85.52,2.59,2.59,0,1,0,3-3.42Z"/><path class="cls-4" d="M113.08,13a1.7,1.7,0,0,0,0-1.58,1.06,1.06,0,0,1,.11-.65c.12-.24.36-.53.57-.43L118,12.59,115.7,17c-.11.21.19.45.43.57a1.06,1.06,0,0,0,.65.11,1.67,1.67,0,0,1,1.58,0,1.69,1.69,0,0,1-1.56,3,1.66,1.66,0,0,1-.9-1.3,1.1,1.1,0,0,0-.46-.47c-.23-.12-.61-.23-.71,0L112.59,23l-4.26-2.22c-.2-.11-.45.19-.57.43a1.21,1.21,0,0,0-.11.64,1.67,1.67,0,0,1,0,1.58A1.69,1.69,0,1,1,106,21a1.13,1.13,0,0,0,.46-.46c.13-.24.23-.61,0-.71l-4.26-2.23,2.13-4.09c.11-.21.48-.1.72,0a1.13,1.13,0,0,1,.45.47,1.69,1.69,0,0,0,3.18.59,1.69,1.69,0,0,0-.71-2.28,1.72,1.72,0,0,0-1.59,0,1.09,1.09,0,0,1-.65-.11c-.23-.12-.53-.36-.42-.56l2.3-4.43,4.26,2.22c.21.11.1.48,0,.72a1.2,1.2,0,0,1-.47.45,1.69,1.69,0,0,0-.59,3.18A1.69,1.69,0,0,0,113.08,13Z"/><path class="cls-5" d="M121.41,46h-5.5q-10.55,0-10.54,9.72V63.1a9.78,9.78,0,0,0,.55,3.59,4.87,4.87,0,0,0,1.78,2.25,27.33,27.33,0,0,0,4,2.14l8.34,4a21.35,21.35,0,0,1,2.39,1.42,2.58,2.58,0,0,1,.73,2.14V84.1q0,3.32-3.48,3.32h-1.56c-2.43,0-3.68-1-3.87-2.87h-.07a3.85,3.85,0,0,0-4.1-3.54h-4.7v2.85q0,10.44,10.54,10.43h5.41q10.62,0,10.62-9.56V76.85a8.74,8.74,0,0,0-.64-4.07A5.71,5.71,0,0,0,129.52,71a42,42,0,0,0-3.9-2.1L117.28,65a18.83,18.83,0,0,1-2.38-1.42,2.55,2.55,0,0,1-.73-2.14V56.24c0-2.26,1.25-3.4,3.75-3.4h1.38c2.57,0,3.85,1.14,3.85,3.4v2a3.93,3.93,0,0,0,4,3h4.76V55.69Q131.94,46,121.41,46Z"/><path class="cls-5" d="M157.79,46h-8.43q-10.55,0-10.54,9.72v29q0,9.64,10.63,9.64h8.24q10.63,0,10.64-9.64v-29Q168.33,46,157.79,46Zm1.74,38.13q0,3.32-3.48,3.32h-4.49q-3.94,0-3.95-3.32V56.16c0-2.21,1.29-3.32,3.85-3.32h4.13c2.62,0,3.94,1.11,3.94,3.32Z"/><path class="cls-5" d="M229.54,49.54V46H207.93a4,4,0,0,0-4.05,3v3.84h8.43V94.29H217A3.88,3.88,0,0,0,221.11,91V52.84h4.36A3.88,3.88,0,0,0,229.54,49.54Z"/><path class="cls-2" d="M289.77,49.5h0V83.7q0,3.72-3.57,3.72h-3.57q-3.86,0-3.85-3.72V46H274A3.91,3.91,0,0,0,270,49.14V83.46q0,10.83,10.54,10.83h7.42q10.63,0,10.63-10.75V46h-4.68A3.84,3.84,0,0,0,289.77,49.5Z"/><path class="cls-2" d="M330.53,91V87.42H316L330.53,46h-25v3.41h0a3.7,3.7,0,0,0,3.24,3.46H320l-14.5,41.45h20.95A3.89,3.89,0,0,0,330.53,91Z"/><path class="cls-2" d="M390.19,91.37v-4h-12.1V46h-4.72a3.89,3.89,0,0,0-4.07,3.26V94.29h16.86A4,4,0,0,0,390.19,91.37Z"/><path class="cls-2" d="M362.42,91V87.42H347.85L362.42,46h-25v3.41h0a3.7,3.7,0,0,0,3.24,3.46H351.9L337.41,94.29h20.94A3.89,3.89,0,0,0,362.42,91Z"/><path class="cls-2" d="M415.56,85a6,6,0,1,1,0-6.66,4,4,0,0,0,2.19.71,4.86,4.86,0,0,0,1.12-.15V61.56a4.82,4.82,0,0,0-1.11-.14,4,4,0,0,0-2.2.71,6,6,0,1,1,0-6.66,4.1,4.1,0,0,0,2.19.7,4.84,4.84,0,0,0,1.12-.14V46H401.16a3.86,3.86,0,0,0-4.1,3.48V94.29h17.76a3.89,3.89,0,0,0,4.05-3.15V84.39a4.85,4.85,0,0,0-1.11-.15A4.06,4.06,0,0,0,415.56,85Z"/><path class="cls-5" d="M184,52.84h9.23A4,4,0,0,0,197,50.09V46H179.24a4,4,0,0,0-4,3V94.29H180a4,4,0,0,0,4-3Z"/><path class="cls-5" d="M193.37,72.74A4,4,0,0,0,197,70V65.86h-10.5v6.88Z"/><path class="cls-2" d="M245.21,52.84h5.14c2.62,0,3.94,1.11,3.94,3.32v6.38c0,2.22-1.16,3.32-3.48,3.32h-3.08v6.87h4.82q10.53,0,10.54-9.64V55.69q0-9.72-10.64-9.72h-12a3.89,3.89,0,0,0-4.06,3.2V94.29h4.78a4,4,0,0,0,4-2.81Z"/><path class="cls-6" d="M37.94,65.91a3.25,3.25,0,0,1-1.66-.84c-.53-.53-1.14-1.44-.67-1.91l9.63-9.63L36,44.27c-.46-.47.15-1.38.67-1.91a3.22,3.22,0,0,1,1.65-.84,4.79,4.79,0,1,0-3.78-3.8,3.18,3.18,0,0,1-.84,1.66c-.54.53-1.45,1.14-1.92.67l-10-10-9.63,9.63c-.47.47.14,1.38.68,1.91a3.11,3.11,0,0,0,1.65.84,4.79,4.79,0,1,1-3.8,3.79,3.17,3.17,0,0,0-.83-1.65c-.54-.53-1.44-1.14-1.92-.67l-7,7A4.26,4.26,0,0,0,0,53.53a4.18,4.18,0,0,0,1,2.71l7.29,7.29c.47.48,1.38-.14,1.91-.67A3.22,3.22,0,0,0,11,61.21,4.79,4.79,0,1,1,14.83,65a3.19,3.19,0,0,0-1.65.84c-.53.53-1.14,1.44-.67,1.91L21.76,77l9.63-9.63c.47-.47,1.38.14,1.91.67a3.19,3.19,0,0,1,.84,1.65,4.8,4.8,0,1,0,3.8-3.79Z"/><path class="cls-7" d="M61.42,89.39a3.22,3.22,0,0,1-1.66-.84c-.53-.53-1.14-1.45-.67-1.92L68.72,77l-9.26-9.26c-.47-.47.14-1.38.68-1.91A3.16,3.16,0,0,1,61.78,65,4.8,4.8,0,1,0,58,61.21a3.3,3.3,0,0,1-.84,1.65c-.54.53-1.45,1.14-1.92.67l-10-10-9.63,9.63c-.47.47.14,1.38.67,1.91a3.25,3.25,0,0,0,1.66.84,4.79,4.79,0,1,1-3.8,3.79,3.19,3.19,0,0,0-.84-1.65c-.53-.53-1.44-1.14-1.91-.67L21.76,77l10,10c.47.47,1.38-.14,1.92-.67a3.22,3.22,0,0,0,.84-1.66,4.78,4.78,0,1,1,3.78,3.8,3.22,3.22,0,0,0-1.65.84c-.52.53-1.13,1.44-.67,1.91l6.62,6.61a4.2,4.2,0,0,0,2.64.93,4.26,4.26,0,0,0,2.69-1l6.94-6.94c.47-.47,1.38.14,1.91.67a3.2,3.2,0,0,1,.84,1.64,4.79,4.79,0,1,0,3.8-3.78Z"/><path class="cls-8" d="M84.9,65.91a3.22,3.22,0,0,1-1.66-.84c-.53-.53-1.14-1.44-.67-1.91l7-7a4.27,4.27,0,0,0,.92-2.64,4.22,4.22,0,0,0-1-2.7l-6.55-6.56c-.47-.47.14-1.38.67-1.91a3.19,3.19,0,0,1,1.65-.84,4.79,4.79,0,0,0,4.3-8.08,4.79,4.79,0,0,0-8.09,4.28,3,3,0,0,1-.84,1.66c-.53.53-1.44,1.14-1.91.67l-10-10-9.63,9.63c-.47.47.14,1.38.67,1.91a3.14,3.14,0,0,0,1.66.84,4.79,4.79,0,1,1-3.8,3.79,3.19,3.19,0,0,0-.84-1.65c-.53-.53-1.44-1.14-1.91-.67l-9.63,9.63,10,10c.47.47,1.38-.14,1.92-.67A3.3,3.3,0,0,0,58,61.21,4.79,4.79,0,1,1,61.78,65a3.16,3.16,0,0,0-1.64.84c-.54.53-1.15,1.44-.68,1.91L68.72,77l9.63-9.63c.47-.47,1.38.14,1.91.67a3.19,3.19,0,0,1,.84,1.65,4.8,4.8,0,1,0,3.8-3.79Z"/><path class="cls-9" d="M68.29,103.93c0,1.48-10.32,2.69-23.05,2.69s-23-1.21-23-2.69,10.32-2.7,23.05-2.7S68.29,102.44,68.29,103.93Z"/></g></g></svg>